<mxfile host="app.diagrams.net" agent="Mozilla/5.0 (Windows NT 10.0; Win64; x64) AppleWebKit/537.36 (KHTML, like Gecko) Chrome/134.0.0.0 Safari/537.36" version="26.1.0">
  <diagram name="Page-1" id="USuxYv9XPbnceh0MRkEU">
    <mxGraphModel dx="1551" dy="1580" grid="1" gridSize="10" guides="1" tooltips="1" connect="1" arrows="1" fold="1" page="1" pageScale="1" pageWidth="827" pageHeight="1169" math="0" shadow="0">
      <root>
        <mxCell id="0" />
        <mxCell id="1" parent="0" />
        <mxCell id="luGG8L6NpVET7iOfrZ5E-6" value="" style="edgeStyle=orthogonalEdgeStyle;rounded=0;orthogonalLoop=1;jettySize=auto;html=1;" parent="1" source="QUnVZabD3jAlZHyOa0Sr-1" target="luGG8L6NpVET7iOfrZ5E-1" edge="1">
          <mxGeometry relative="1" as="geometry" />
        </mxCell>
        <mxCell id="QUnVZabD3jAlZHyOa0Sr-1" value="Credit c&lt;span style=&quot;background-color: transparent; color: light-dark(rgb(0, 0, 0), rgb(255, 255, 255));&quot;&gt;ard&lt;/span&gt;&lt;div&gt;&lt;span style=&quot;background-color: transparent; color: light-dark(rgb(0, 0, 0), rgb(255, 255, 255));&quot;&gt;&amp;nbsp;fraud detection agents&lt;/span&gt;&lt;/div&gt;" style="shape=umlActor;verticalLabelPosition=bottom;verticalAlign=top;html=1;outlineConnect=0;" parent="1" vertex="1">
          <mxGeometry x="50" y="180" width="30" height="60" as="geometry" />
        </mxCell>
        <mxCell id="luGG8L6NpVET7iOfrZ5E-5" value="" style="edgeStyle=orthogonalEdgeStyle;rounded=0;orthogonalLoop=1;jettySize=auto;html=1;" parent="1" source="QUnVZabD3jAlZHyOa0Sr-2" target="luGG8L6NpVET7iOfrZ5E-4" edge="1">
          <mxGeometry relative="1" as="geometry" />
        </mxCell>
        <mxCell id="QUnVZabD3jAlZHyOa0Sr-2" value="System administrators" style="shape=umlActor;verticalLabelPosition=bottom;verticalAlign=top;html=1;outlineConnect=0;" parent="1" vertex="1">
          <mxGeometry x="50" y="360" width="30" height="60" as="geometry" />
        </mxCell>
        <mxCell id="P8tNy1iYW3qsByZ3YsKK-2" value="" style="rounded=0;whiteSpace=wrap;html=1;" parent="1" vertex="1">
          <mxGeometry x="210" y="90" width="690" height="430" as="geometry" />
        </mxCell>
        <mxCell id="2dHNPo27WO1Mkap-W8mN-8" value="" style="edgeStyle=orthogonalEdgeStyle;rounded=0;orthogonalLoop=1;jettySize=auto;html=1;" edge="1" parent="1" source="luGG8L6NpVET7iOfrZ5E-1" target="2dHNPo27WO1Mkap-W8mN-3">
          <mxGeometry relative="1" as="geometry" />
        </mxCell>
        <mxCell id="luGG8L6NpVET7iOfrZ5E-1" value="Entry Point for Agents" style="whiteSpace=wrap;html=1;aspect=fixed;" parent="1" vertex="1">
          <mxGeometry x="170" y="200" width="60" height="60" as="geometry" />
        </mxCell>
        <mxCell id="2dHNPo27WO1Mkap-W8mN-9" value="" style="edgeStyle=orthogonalEdgeStyle;rounded=0;orthogonalLoop=1;jettySize=auto;html=1;" edge="1" parent="1" source="luGG8L6NpVET7iOfrZ5E-4" target="2dHNPo27WO1Mkap-W8mN-4">
          <mxGeometry relative="1" as="geometry" />
        </mxCell>
        <mxCell id="luGG8L6NpVET7iOfrZ5E-4" value="Entry Point for Admins" style="whiteSpace=wrap;html=1;aspect=fixed;" parent="1" vertex="1">
          <mxGeometry x="170" y="370" width="60" height="60" as="geometry" />
        </mxCell>
        <mxCell id="0Ji5A2vdFTpOfctsB-qt-1" value="&lt;div style=&quot;text-align: justify;&quot;&gt;&lt;font face=&quot;Helvetica&quot; style=&quot;font-size: 18px;&quot;&gt;&amp;nbsp;1. Central user login and authorization management.&lt;/font&gt;&lt;/div&gt;&lt;div style=&quot;text-align: justify;&quot;&gt;&lt;font style=&quot;font-size: 18px;&quot; face=&quot;Helvetica&quot;&gt;&amp;nbsp;2. Central master data repository (customer database).&lt;/font&gt;&lt;/div&gt;&lt;div style=&quot;text-align: justify;&quot;&gt;&lt;font style=&quot;font-size: 18px;&quot; face=&quot;Helvetica&quot;&gt;&amp;nbsp;3. Service for sending notifications (push notifications and/or e-&amp;nbsp; mail) to end-users.&lt;/font&gt;&lt;/div&gt;&lt;div style=&quot;text-align: justify;&quot;&gt;&lt;font style=&quot;font-size: 18px;&quot; face=&quot;Helvetica&quot;&gt;&amp;nbsp;4. Service for computation-intensive calculations (ML-based&amp;nbsp; &amp;nbsp;credit card fraud detection).&lt;/font&gt;&lt;/div&gt;&lt;div style=&quot;text-align: justify;&quot;&gt;&lt;font style=&quot;font-size: 18px;&quot; face=&quot;Helvetica&quot;&gt;&amp;nbsp;5. Service for storing the training data and predictions of the&amp;nbsp; &amp;nbsp;models.&lt;/font&gt;&lt;/div&gt;&lt;div style=&quot;text-align: justify;&quot;&gt;&lt;font style=&quot;font-size: 18px;&quot; face=&quot;Helvetica&quot;&gt;&amp;nbsp;6. Web user interface.&lt;/font&gt;&lt;/div&gt;" style="shape=note;size=20;whiteSpace=wrap;html=1;align=left;" parent="1" vertex="1">
          <mxGeometry x="-10" y="-160" width="720" height="160" as="geometry" />
        </mxCell>
        <mxCell id="hKYB33OC29xuQnpMXn42-1" value="Credit Card Fraud Detection Agents" style="shape=umlActor;" parent="1" vertex="1">
          <mxGeometry x="-770" y="80" width="80" height="30" as="geometry" />
        </mxCell>
        <mxCell id="hKYB33OC29xuQnpMXn42-2" value="System Administrators" style="shape=umlActor;" parent="1" vertex="1">
          <mxGeometry x="-770" y="180" width="80" height="30" as="geometry" />
        </mxCell>
        <mxCell id="hKYB33OC29xuQnpMXn42-3" value="Credit Card Fraud Detection System" style="shape=rectangle;" parent="1" vertex="1">
          <mxGeometry x="-620" y="-30" width="510" height="390" as="geometry" />
        </mxCell>
        <mxCell id="hKYB33OC29xuQnpMXn42-4" value="Web User Interface" style="shape=component;" parent="hKYB33OC29xuQnpMXn42-3" vertex="1">
          <mxGeometry x="30" y="19.499999999999996" width="153" height="64.99999999999999" as="geometry" />
        </mxCell>
        <mxCell id="hKYB33OC29xuQnpMXn42-5" value="User Authentication Service" style="shape=component;" parent="hKYB33OC29xuQnpMXn42-3" vertex="1">
          <mxGeometry x="63.74999999999999" y="123.49999999999999" width="191.24999999999997" height="64.99999999999999" as="geometry" />
        </mxCell>
        <mxCell id="hKYB33OC29xuQnpMXn42-6" value="Customer Database" style="shape=component;" parent="hKYB33OC29xuQnpMXn42-3" vertex="1">
          <mxGeometry x="338.75" y="94.86486486486486" width="161.25" height="57.97297297297297" as="geometry" />
        </mxCell>
        <mxCell id="hKYB33OC29xuQnpMXn42-7" value="Fraud Detection Service" style="shape=component;" parent="hKYB33OC29xuQnpMXn42-3" vertex="1">
          <mxGeometry x="63.74999999999999" y="233.99999999999994" width="229.49999999999997" height="64.99999999999999" as="geometry" />
        </mxCell>
        <mxCell id="hKYB33OC29xuQnpMXn42-8" value="Data Storage Service" style="shape=component;" parent="hKYB33OC29xuQnpMXn42-3" vertex="1">
          <mxGeometry x="318.75" y="242.43243243243242" width="181.25" height="56.571081081081076" as="geometry" />
        </mxCell>
        <mxCell id="hKYB33OC29xuQnpMXn42-9" value="Notification Service" style="shape=component;" parent="hKYB33OC29xuQnpMXn42-3" vertex="1">
          <mxGeometry x="191.25" y="338" width="188.75" height="42" as="geometry" />
        </mxCell>
        <mxCell id="hKYB33OC29xuQnpMXn42-10" parent="1" source="hKYB33OC29xuQnpMXn42-1" target="hKYB33OC29xuQnpMXn42-4" edge="1">
          <mxGeometry relative="1" as="geometry" />
        </mxCell>
        <mxCell id="hKYB33OC29xuQnpMXn42-11" parent="1" source="hKYB33OC29xuQnpMXn42-2" target="hKYB33OC29xuQnpMXn42-4" edge="1">
          <mxGeometry relative="1" as="geometry" />
        </mxCell>
        <mxCell id="hKYB33OC29xuQnpMXn42-12" parent="1" source="hKYB33OC29xuQnpMXn42-4" target="hKYB33OC29xuQnpMXn42-5" edge="1">
          <mxGeometry relative="1" as="geometry" />
        </mxCell>
        <mxCell id="hKYB33OC29xuQnpMXn42-13" parent="1" source="hKYB33OC29xuQnpMXn42-5" target="hKYB33OC29xuQnpMXn42-6" edge="1">
          <mxGeometry relative="1" as="geometry" />
        </mxCell>
        <mxCell id="hKYB33OC29xuQnpMXn42-14" parent="1" source="hKYB33OC29xuQnpMXn42-4" target="hKYB33OC29xuQnpMXn42-7" edge="1">
          <mxGeometry relative="1" as="geometry" />
        </mxCell>
        <mxCell id="hKYB33OC29xuQnpMXn42-15" parent="1" source="hKYB33OC29xuQnpMXn42-7" target="hKYB33OC29xuQnpMXn42-6" edge="1">
          <mxGeometry relative="1" as="geometry" />
        </mxCell>
        <mxCell id="hKYB33OC29xuQnpMXn42-16" parent="1" source="hKYB33OC29xuQnpMXn42-7" target="hKYB33OC29xuQnpMXn42-8" edge="1">
          <mxGeometry relative="1" as="geometry" />
        </mxCell>
        <mxCell id="hKYB33OC29xuQnpMXn42-17" parent="1" source="hKYB33OC29xuQnpMXn42-7" target="hKYB33OC29xuQnpMXn42-9" edge="1">
          <mxGeometry relative="1" as="geometry" />
        </mxCell>
        <mxCell id="hKYB33OC29xuQnpMXn42-18" parent="1" source="hKYB33OC29xuQnpMXn42-8" target="hKYB33OC29xuQnpMXn42-7" edge="1">
          <mxGeometry relative="1" as="geometry" />
        </mxCell>
        <mxCell id="hKYB33OC29xuQnpMXn42-19" parent="1" source="hKYB33OC29xuQnpMXn42-9" target="hKYB33OC29xuQnpMXn42-1" edge="1">
          <mxGeometry relative="1" as="geometry" />
        </mxCell>
        <mxCell id="hKYB33OC29xuQnpMXn42-21" value="&#xa;  &#xa;    &#xa;    &#xa;    &#xa;    &#xa;    &#xa;      &#xa;    &#xa;    &#xa;      &#xa;    &#xa;    &#xa;    &#xa;    &#xa;      &#xa;    &#xa;    &#xa;    &#xa;    &#xa;      &#xa;    &#xa;    &#xa;      &#xa;    &#xa;    &#xa;      &#xa;    &#xa;    &#xa;      &#xa;    &#xa;    &#xa;      &#xa;    &#xa;    &#xa;      &#xa;    &#xa;    &#xa;    &#xa;    &#xa;    &#xa;    &#xa;    &#xa;    &#xa;    &#xa;    &#xa;    &#xa;    &#xa;    &#xa;  &#xa;" style="text;whiteSpace=wrap;html=1;" vertex="1" parent="1">
          <mxGeometry width="30" height="740" as="geometry" />
        </mxCell>
        <mxCell id="2dHNPo27WO1Mkap-W8mN-1" value="Credit card fraud detection system" style="text;html=1;align=center;verticalAlign=middle;whiteSpace=wrap;rounded=0;" vertex="1" parent="1">
          <mxGeometry x="200" y="60" width="100" height="30" as="geometry" />
        </mxCell>
        <mxCell id="hKYB33OC29xuQnpMXn42-22" value="&#xa;  &#xa;    &#xa;    &#xa;    &#xa;    &#xa;    &#xa;      &#xa;    &#xa;    &#xa;      &#xa;    &#xa;    &#xa;    &#xa;    &#xa;      &#xa;    &#xa;    &#xa;    &#xa;    &#xa;      &#xa;    &#xa;    &#xa;      &#xa;    &#xa;    &#xa;      &#xa;    &#xa;    &#xa;      &#xa;    &#xa;    &#xa;      &#xa;    &#xa;    &#xa;      &#xa;    &#xa;    &#xa;    &#xa;    &#xa;    &#xa;    &#xa;    &#xa;    &#xa;    &#xa;    &#xa;    &#xa;    &#xa;    &#xa;  &#xa;" style="text;whiteSpace=wrap;html=1;" vertex="1" parent="1">
          <mxGeometry width="30" height="740" as="geometry" />
        </mxCell>
        <mxCell id="2dHNPo27WO1Mkap-W8mN-13" value="" style="edgeStyle=orthogonalEdgeStyle;rounded=0;orthogonalLoop=1;jettySize=auto;html=1;" edge="1" parent="1" source="2dHNPo27WO1Mkap-W8mN-2" target="2dHNPo27WO1Mkap-W8mN-6">
          <mxGeometry relative="1" as="geometry" />
        </mxCell>
        <mxCell id="hKYB33OC29xuQnpMXn42-23" value="&#xa;  &#xa;    &#xa;    &#xa;    &#xa;    &#xa;    &#xa;      &#xa;    &#xa;    &#xa;      &#xa;    &#xa;    &#xa;    &#xa;    &#xa;      &#xa;    &#xa;    &#xa;    &#xa;    &#xa;      &#xa;    &#xa;    &#xa;      &#xa;    &#xa;    &#xa;      &#xa;    &#xa;    &#xa;      &#xa;    &#xa;    &#xa;      &#xa;    &#xa;    &#xa;      &#xa;    &#xa;    &#xa;    &#xa;    &#xa;    &#xa;    &#xa;    &#xa;    &#xa;    &#xa;    &#xa;    &#xa;    &#xa;    &#xa;  &#xa;" style="text;whiteSpace=wrap;html=1;" vertex="1" parent="1">
          <mxGeometry width="30" height="740" as="geometry" />
        </mxCell>
        <mxCell id="2dHNPo27WO1Mkap-W8mN-17" style="edgeStyle=orthogonalEdgeStyle;rounded=0;orthogonalLoop=1;jettySize=auto;html=1;exitX=1;exitY=0.5;exitDx=0;exitDy=0;entryX=0;entryY=0.5;entryDx=0;entryDy=0;" edge="1" parent="1" source="2dHNPo27WO1Mkap-W8mN-2" target="2dHNPo27WO1Mkap-W8mN-15">
          <mxGeometry relative="1" as="geometry" />
        </mxCell>
        <mxCell id="hKYB33OC29xuQnpMXn42-24" value="&#xa;  &#xa;    &#xa;    &#xa;    &#xa;    &#xa;    &#xa;      &#xa;    &#xa;    &#xa;      &#xa;    &#xa;    &#xa;    &#xa;    &#xa;      &#xa;    &#xa;    &#xa;    &#xa;    &#xa;      &#xa;    &#xa;    &#xa;      &#xa;    &#xa;    &#xa;      &#xa;    &#xa;    &#xa;      &#xa;    &#xa;    &#xa;      &#xa;    &#xa;    &#xa;      &#xa;    &#xa;    &#xa;    &#xa;    &#xa;    &#xa;    &#xa;    &#xa;    &#xa;    &#xa;    &#xa;    &#xa;    &#xa;    &#xa;  &#xa;" style="text;whiteSpace=wrap;html=1;" vertex="1" parent="1">
          <mxGeometry width="30" height="740" as="geometry" />
        </mxCell>
        <mxCell id="2dHNPo27WO1Mkap-W8mN-2" value="Transaction Analysis Service" style="rounded=0;whiteSpace=wrap;html=1;" vertex="1" parent="1">
          <mxGeometry x="610" y="280" width="120" height="60" as="geometry" />
        </mxCell>
        <mxCell id="2dHNPo27WO1Mkap-W8mN-10" value="" style="edgeStyle=orthogonalEdgeStyle;rounded=0;orthogonalLoop=1;jettySize=auto;html=1;" edge="1" parent="1" source="2dHNPo27WO1Mkap-W8mN-3" target="2dHNPo27WO1Mkap-W8mN-7">
          <mxGeometry relative="1" as="geometry" />
        </mxCell>
        <mxCell id="2dHNPo27WO1Mkap-W8mN-12" style="edgeStyle=orthogonalEdgeStyle;rounded=0;orthogonalLoop=1;jettySize=auto;html=1;entryX=0;entryY=0.5;entryDx=0;entryDy=0;" edge="1" parent="1" source="2dHNPo27WO1Mkap-W8mN-3" target="2dHNPo27WO1Mkap-W8mN-2">
          <mxGeometry relative="1" as="geometry" />
        </mxCell>
        <mxCell id="2dHNPo27WO1Mkap-W8mN-3" value="&lt;strong data-end=&quot;541&quot; data-start=&quot;514&quot;&gt;Fraud Analyst Interface&lt;/strong&gt;" style="rounded=0;whiteSpace=wrap;html=1;" vertex="1" parent="1">
          <mxGeometry x="260" y="140" width="174" height="150" as="geometry" />
        </mxCell>
        <mxCell id="2dHNPo27WO1Mkap-W8mN-11" style="edgeStyle=orthogonalEdgeStyle;rounded=0;orthogonalLoop=1;jettySize=auto;html=1;exitX=1;exitY=0.5;exitDx=0;exitDy=0;entryX=0;entryY=0.5;entryDx=0;entryDy=0;" edge="1" parent="1" source="2dHNPo27WO1Mkap-W8mN-4" target="2dHNPo27WO1Mkap-W8mN-7">
          <mxGeometry relative="1" as="geometry" />
        </mxCell>
        <mxCell id="2dHNPo27WO1Mkap-W8mN-4" value="Admin Dashboard" style="rounded=0;whiteSpace=wrap;html=1;" vertex="1" parent="1">
          <mxGeometry x="294" y="370" width="116" height="60" as="geometry" />
        </mxCell>
        <mxCell id="2dHNPo27WO1Mkap-W8mN-5" value="Customer Records DB" style="rounded=0;whiteSpace=wrap;html=1;" vertex="1" parent="1">
          <mxGeometry x="840" y="110" width="120" height="60" as="geometry" />
        </mxCell>
        <mxCell id="2dHNPo27WO1Mkap-W8mN-18" style="edgeStyle=orthogonalEdgeStyle;rounded=0;orthogonalLoop=1;jettySize=auto;html=1;entryX=0;entryY=0.5;entryDx=0;entryDy=0;" edge="1" parent="1" source="2dHNPo27WO1Mkap-W8mN-6" target="2dHNPo27WO1Mkap-W8mN-5">
          <mxGeometry relative="1" as="geometry" />
        </mxCell>
        <mxCell id="2dHNPo27WO1Mkap-W8mN-6" value="Alert &amp;amp; Messaging Service" style="rounded=0;whiteSpace=wrap;html=1;" vertex="1" parent="1">
          <mxGeometry x="630" y="410" width="120" height="60" as="geometry" />
        </mxCell>
        <mxCell id="2dHNPo27WO1Mkap-W8mN-16" style="edgeStyle=orthogonalEdgeStyle;rounded=0;orthogonalLoop=1;jettySize=auto;html=1;entryX=0;entryY=0.75;entryDx=0;entryDy=0;" edge="1" parent="1" source="2dHNPo27WO1Mkap-W8mN-7" target="2dHNPo27WO1Mkap-W8mN-14">
          <mxGeometry relative="1" as="geometry" />
        </mxCell>
        <mxCell id="2dHNPo27WO1Mkap-W8mN-7" value="Access Control Service" style="rounded=0;whiteSpace=wrap;html=1;" vertex="1" parent="1">
          <mxGeometry x="580" y="110" width="120" height="70" as="geometry" />
        </mxCell>
        <mxCell id="2dHNPo27WO1Mkap-W8mN-14" value="User Authentication DB" style="rounded=0;whiteSpace=wrap;html=1;" vertex="1" parent="1">
          <mxGeometry x="870" y="260" width="120" height="60" as="geometry" />
        </mxCell>
        <mxCell id="2dHNPo27WO1Mkap-W8mN-15" value="AI Fraud Data Storage" style="rounded=0;whiteSpace=wrap;html=1;" vertex="1" parent="1">
          <mxGeometry x="900" y="390" width="120" height="60" as="geometry" />
        </mxCell>
        <mxCell id="2dHNPo27WO1Mkap-W8mN-19" value="" style="rounded=0;whiteSpace=wrap;html=1;" vertex="1" parent="1">
          <mxGeometry x="660" y="530" width="120" height="60" as="geometry" />
        </mxCell>
        <mxCell id="2dHNPo27WO1Mkap-W8mN-20" value="" style="rounded=0;whiteSpace=wrap;html=1;" vertex="1" parent="1">
          <mxGeometry x="530" y="530" width="120" height="60" as="geometry" />
        </mxCell>
        <mxCell id="2dHNPo27WO1Mkap-W8mN-21" value="&lt;font style=&quot;font-size: 9px;&quot;&gt;Transaction Review Pane&lt;/font&gt;" style="rounded=0;whiteSpace=wrap;html=1;" vertex="1" parent="1">
          <mxGeometry x="400" y="145" width="80" height="25" as="geometry" />
        </mxCell>
        <mxCell id="2dHNPo27WO1Mkap-W8mN-27" value="&lt;font style=&quot;font-size: 8px;&quot;&gt;Case Management System&lt;/font&gt;" style="rounded=0;whiteSpace=wrap;html=1;" vertex="1" parent="1">
          <mxGeometry x="400" y="180" width="80" height="25" as="geometry" />
        </mxCell>
        <mxCell id="2dHNPo27WO1Mkap-W8mN-28" value="&lt;strong data-end=&quot;558&quot; data-start=&quot;530&quot;&gt;&lt;font style=&quot;font-size: 8px;&quot;&gt;Fraud Reports &amp;amp; Insights&lt;/font&gt;&lt;/strong&gt;" style="rounded=0;whiteSpace=wrap;html=1;" vertex="1" parent="1">
          <mxGeometry x="400" y="255" width="80" height="25" as="geometry" />
        </mxCell>
      </root>
    </mxGraphModel>
  </diagram>
</mxfile>
